# xmcd
#
# Track frame offsets:
#	182
#	13865
#	27222
#	46080
#	64620
#	82777
#	98017
#	108000
#	129452
#	145430
#	167297
#	183765
#
# Disc length: 2632 seconds
#
# Revision: 1
# Processed by: cddbd v1.5.2PL0 Copyright (c) Steve Scherf et al.
# Submitted via: EZCDAudioConverter 7.1.8.1
#
DISCID=840a460c
DTITLE=John Denver - John Denver Greatest Hits, Vol. 2
DYEAR=1981
DGENRE=Pop/Country
TTITLE0=Annie's Song - (1974)
TTITLE1=Perhaps Love (With Placido Domingo) - (1981)
TTITLE2=Fly Away (With Olivia Newton-John) - (1975)
TTITLE3=Like a Sad Song - (1976)
TTITLE4=Looking for Space - (1975)
TTITLE5=Thank God, I'm a Country Boy - (1974)
TTITLE6=Grandma's Feather Bed - (1973)
TTITLE7=Back Home Again - (1974)
TTITLE8=I'm Sorry - (1975)
TTITLE9=My Sweet Lady - (1970)
TTITLE10=Calypso - (1975)
TTITLE11=This Old Guitar - (1974)
EXTD=
EXTT0=
EXTT1=
EXTT2=
EXTT3=
EXTT4=
EXTT5=
EXTT6=
EXTT7=
EXTT8=
EXTT9=
EXTT10=
EXTT11=
PLAYORDER=
